<svg width="42" height="35" viewBox="0 0 42 35" fill="none" xmlns="http://www.w3.org/2000/svg">
<path d="M0.900002 33.4H2.9M40.4 33.4H38.4M2.9 33.4V0.899994H38.4V33.4M2.9 33.4H38.4" stroke="white" stroke-width="1.8" stroke-linecap="round"/>
<path d="M6.4 33.4V19.9H14.9V33.4" stroke="white" stroke-width="1.8" stroke-linecap="round"/>
<path d="M22.7279 15.9345C22.7279 15.6393 22.9672 15.4 23.2624 15.4C23.5576 15.4 23.7969 15.6393 23.7969 15.9345V19.5272C23.7969 19.9087 23.7228 20.2401 23.5746 20.5214C23.4281 20.8027 23.2241 21.0195 22.9627 21.1717C22.7013 21.3239 22.3974 21.4 22.051 21.4C21.743 21.4 21.4632 21.3374 21.2118 21.2121C20.962 21.085 20.7639 20.8923 20.6173 20.6341C20.544 20.5039 20.4892 20.357 20.453 20.1935C20.3881 19.9004 20.6427 19.6543 20.9429 19.6543H21.0636C21.2931 19.6543 21.4627 19.8477 21.559 20.0561C21.6123 20.1659 21.6847 20.2507 21.7763 20.3104C21.8695 20.3682 21.9794 20.3971 22.106 20.3971C22.2392 20.3971 22.3516 20.3643 22.4432 20.2988C22.5364 20.2314 22.6072 20.1331 22.6555 20.004C22.7038 19.8749 22.7279 19.716 22.7279 19.5272V15.9345Z" fill="white"/>
<path d="M26.3706 21.3191C26.0604 21.3191 25.7903 21.1076 25.7158 20.8065L24.552 16.1001C24.464 15.7441 24.7334 15.4 25.1001 15.4C25.3681 15.4 25.5991 15.5883 25.6531 15.8507L26.4027 19.4917C26.4052 19.5039 26.416 19.5127 26.4285 19.5127C26.4408 19.5127 26.4514 19.5042 26.4542 19.4922L27.2717 15.893C27.3372 15.6046 27.5935 15.4 27.8892 15.4C28.1851 15.4 28.4416 15.605 28.5068 15.8936L29.322 19.4997C29.3249 19.5124 29.3361 19.5214 29.3491 19.5214C29.3624 19.5214 29.3738 19.5121 29.3764 19.4991L30.1259 15.8509C30.1799 15.5884 30.4109 15.4 30.6789 15.4C31.0456 15.4 31.3149 15.7441 31.2269 16.1L30.0631 20.8064C29.9886 21.1075 29.7184 21.3191 29.4082 21.3191C29.099 21.3191 28.8294 21.1089 28.7539 20.8091L27.9082 17.4491C27.8847 17.4491 27.8642 17.4651 27.8585 17.4879L27.0247 20.8089C26.9494 21.1088 26.6798 21.3191 26.3706 21.3191Z" fill="white"/>
<path d="M2.9 5.89999H38.4M33.4 26.4V10.9H18.4V26.4H33.4Z" stroke="white" stroke-width="1.8" stroke-linecap="round"/>
</svg>
